<svg id="Layer_1" data-name="Layer 1" xmlns="http://www.w3.org/2000/svg" width="200" height="200" viewBox="0 0 200 200"><defs><style>.cls-1{fill:#42a1ff;}.cls-2{fill:#fff;opacity:0.13;}</style></defs><path class="cls-1" d="M165.13,55.76A65.15,65.15,0,0,0,137.5,16,64.51,64.51,0,0,0,100,4.45a72.56,72.56,0,0,0-9.86.78,65.08,65.08,0,0,0-37.9,19.21A65.62,65.62,0,0,0,33,67.93c-.75,13.1,1.89,25.44,8.64,36.64C59,133.43,76.69,162.12,94.21,190.9c1.19,1.94,2.44,3.69,4.57,4.65h2.62c1.34-1.23,3.06-2.22,4-3.71q26-42.63,51.89-85.37A65.27,65.27,0,0,0,165.13,55.76ZM100,105.23h-.6C81.23,105.21,66.25,90,66.23,71.6s15.1-33.66,33.18-33.69H100c18.54.29,33.57,15.32,33.56,33.7A33.72,33.72,0,0,1,100,105.23Z"/><path class="cls-2" d="M66.23,71.6c0,18.42,15,33.61,33.17,33.64h.6v90.32H98.78c-2.13-1-3.38-2.71-4.57-4.65C76.69,162.12,59,133.43,41.63,104.57,34.88,93.37,32.24,81,33,67.93A65.62,65.62,0,0,1,52.24,24.44,65.08,65.08,0,0,1,90.14,5.23,72.56,72.56,0,0,1,100,4.45V37.92h-.59C81.33,37.94,66.22,53.28,66.23,71.6Z"/></svg>